mastitorrents.com
 
http://mastitorrents.com/forums/index.php

General
Complete name                    : G:\Salt (2010) DVDRip [Hindi+Eng] Dual.Audio(www.mastitorrents.com).mkv
Format                           : Matroska
File size                        : 497 MiB
Duration                         : 1h 34mn
Overall bit rate                 : 735 Kbps
Encoded date                     : UTC 2010-08-26 23:23:28
Writing application              : mkvmerge v3.2.0 ('Beginnings') built on Feb 12 2010 16:46:17
Writing library                  : libebml v0.7.9 + libmatroska v0.8.1

Video
ID                               : 1
Format                           : AVC
Format/Info                      : Advanced Video Codec
Format profile                   : High@L3.0
Format settings, CABAC           : Yes
Format settings, ReFrames        : 8 frames
Muxing mode                      : Container profile=Unknown@3.0
Codec ID                         : V_MPEG4/ISO/AVC
Duration                         : 1h 34mn
Bit rate                         : 465 Kbps
Nominal bit rate                 : 500 Kbps
Width                            : 720 pixels
Height                           : 304 pixels
Display aspect ratio             : 2.35:1
Frame rate                       : 24.000 fps
Original frame rate              : 25.000 fps
Color space                      : YUV
Chroma subsampling               : 4:2:0
Bit depth                        : 8 bits
Scan type                        : Progressive
Bits/(Pixel*Frame)               : 0.088
Stream size                      : 314 MiB (63%)
Title                            : 300mbunited.com | rapidpremium.net
Writing library                  : x264 core 98 r1649 20cbe10
Language                         : English

Audio #1
ID                               : 2
Format                           : MPEG Audio
Format version                   : Version 1
Format profile                   : Layer 3
Codec ID                         : A_MPEG/L3
Codec ID/Hint                    : MP3
Duration                         : 1h 34mn
Bit rate mode                    : Constant
Bit rate                         : 128 Kbps
Channel(s)                       : 2 channels
Sampling rate                    : 44.1 KHz
Stream size                      : 86.6 MiB (17%)
Title                            : Hindi

Audio #2
ID                               : 3
Format                           : MPEG Audio
Format version                   : Version 1
Format profile                   : Layer 3
Codec ID                         : A_MPEG/L3
Codec ID/Hint                    : MP3
Duration                         : 1h 34mn
Bit rate mode                    : Constant
Bit rate                         : 128 Kbps
Channel(s)                       : 2 channels
Sampling rate                    : 48.0 KHz
Stream size                      : 86.6 MiB (17%)
Title                            : Eng
 
http://www.imdb.com/title/tt0944835